<?xml version="1.0" encoding="UTF-8" standalone="no"?>
<!-- Created with Inkscape (http://www.inkscape.org/) -->

<svg
   version="1.1"
   id="svg1"
   width="640"
   height="226.24001"
   viewBox="0 0 640 226.24001"
   xml:space="preserve"
   xmlns="http://www.w3.org/2000/svg"
   xmlns:svg="http://www.w3.org/2000/svg"><defs
     id="defs1" /><g
     id="layer1"
     style="display:inline"
     transform="translate(650)"><path
       style="display:inline;fill:#2079a1;fill-opacity:1;stroke:#2079a1;stroke-width:4.62317;stroke-linecap:round;stroke-linejoin:round;stroke-dasharray:none;stroke-opacity:1"
       id="path4"
       d="m -508.84432,51.004246 5.14533,10.73793 11.80522,1.553849 -8.62237,8.211708 2.17021,11.707597 -10.47426,-5.662817 -10.46395,5.681845 2.14892,-11.711521 -8.63729,-8.196023 11.80238,-1.575303 z" /><path
       style="fill:none;fill-opacity:1;stroke:#2079a1;stroke-width:11.6504;stroke-linecap:round;stroke-linejoin:round;stroke-dasharray:none;stroke-opacity:1"
       d="m -507.89685,197.79541 c -17.53881,-35.0776 -22.65723,-46.87483 -33.21509,-77.76054 -10.39912,-30.421292 -20.03731,-66.833714 -18.00444,-72.949017 1.4396,-4.33065 16.27601,-18.381648 53.08206,-17.228386 35.83331,1.122783 45.98123,5.982736 48.89136,12.261642 1.6444,3.547984 4.85529,12.513649 -10.0887,56.186264 -11.63069,33.989717 -28.71397,63.636377 -28.71397,63.636377"
       id="path5" /><path
       style="fill:none;stroke:#2079a1;stroke-width:11.6504;stroke-linecap:round;stroke-dasharray:none;stroke-opacity:1"
       d="m -577.56485,69.447084 c -7.93513,-33.610288 -45.8884,-20.442221 -44.1684,8.239091 1.34842,22.485165 12.56259,35.673475 20.69738,42.680585 9.27459,7.9889 23.32037,17.8861 46.34134,20.5844"
       id="path3" /><path
       style="fill:none;stroke:#2079a1;stroke-width:11.6504;stroke-linecap:round;stroke-dasharray:none;stroke-opacity:1"
       d="m -438.58628,68.51582 c 7.93515,-33.610289 45.88841,-20.442222 44.16842,8.239091 -1.34844,22.485155 -12.56262,35.673479 -20.69741,42.680589 -9.27457,7.9889 -23.32037,17.8861 -46.34134,20.5844"
       id="path2" /></g><text
     xml:space="preserve"
     style="font-size:37.3333px;line-height:0;font-family:Nunito;-inkscape-font-specification:Nunito;letter-spacing:1.5px;word-spacing:0px;writing-mode:lr-tb;direction:ltr;fill:#000000;stroke:none;stroke-width:1.3;stroke-linecap:round;stroke-linejoin:round"
     x="288.14096"
     y="59.770927"
     id="text4"><tspan
       id="tspan4"
       x="288.14096"
       y="59.770927"
       style="font-weight:bold;font-size:37.3333px;letter-spacing:1.5px">Competitive</tspan></text><text
     xml:space="preserve"
     style="font-size:37.3333px;line-height:0;font-family:Nunito;-inkscape-font-specification:Nunito;letter-spacing:1.5px;word-spacing:0px;writing-mode:lr-tb;direction:ltr;fill:#000000;stroke:none;stroke-width:1.3;stroke-linecap:round;stroke-linejoin:round"
     x="288.98682"
     y="105.44494"
     id="text5"><tspan
       id="tspan5"
       x="288.98682"
       y="105.44494"
       style="font-weight:bold;font-size:37.3333px;letter-spacing:1.5px">Programming and</tspan></text><text
     xml:space="preserve"
     style="font-size:37.3333px;line-height:0;font-family:Nunito;-inkscape-font-specification:Nunito;letter-spacing:1.5px;word-spacing:0px;writing-mode:lr-tb;direction:ltr;fill:#000000;stroke:none;stroke-width:1.3;stroke-linecap:round;stroke-linejoin:round"
     x="288.96677"
     y="151.72792"
     id="text5-0"><tspan
       id="tspan5-6"
       x="288.96677"
       y="151.72792"
       style="font-weight:bold;font-size:37.3333px;letter-spacing:1.5px">Mathematics</tspan></text><text
     xml:space="preserve"
     style="font-size:37.3333px;line-height:0;font-family:Nunito;-inkscape-font-specification:Nunito;letter-spacing:1.5px;word-spacing:0px;writing-mode:lr-tb;direction:ltr;fill:#000000;stroke:none;stroke-width:1.3;stroke-linecap:round;stroke-linejoin:round"
     x="289.26874"
     y="198.48457"
     id="text6"><tspan
       id="tspan6"
       x="289.26874"
       y="198.48457"
       style="font-weight:bold">Society</tspan></text></svg>
