<?xml version="1.0" encoding="UTF-8" standalone="no"?>
<!-- Created with Inkscape (http://www.inkscape.org/) -->

<svg
   version="1.1"
   id="svg1"
   width="134.72"
   height="134.72"
   viewBox="0 0 134.72 134.72"
   xmlns="http://www.w3.org/2000/svg"
   xmlns:svg="http://www.w3.org/2000/svg">
  <defs
     id="defs1" />
  <g
     id="layer1"
     style="display:inline">
    <path
       style="display:inline;fill:#2079a1;fill-opacity:1;stroke:#2079a1;stroke-width:2.5;stroke-linecap:round;stroke-linejoin:round;stroke-dasharray:none;stroke-opacity:1"
       id="path4"
       d="m 66.464415,39.38415 2.78236,5.806577 6.383718,0.84025 -4.662587,4.440513 1.173553,6.330928 -5.663998,-3.06219 -5.658422,3.072479 1.162043,-6.33305 -4.67065,-4.432031 6.382181,-0.851851 z" />
    <path
       style="fill:none;fill-opacity:1;stroke:#2079a1;stroke-width:6.3;stroke-linecap:round;stroke-linejoin:round;stroke-dasharray:none;stroke-opacity:1"
       d="M 66.976756,118.76204 C 57.492579,99.793688 54.72478,93.414295 49.015571,76.712726 43.39221,60.262295 38.180323,40.572138 39.279602,37.265264 c 0.778472,-2.341816 8.80132,-9.939947 28.704324,-9.316316 19.377001,0.607149 24.864531,3.235187 26.438193,6.63053 0.88922,1.918586 2.625522,6.766804 -5.4555,30.382939 -6.289334,18.38007 -15.527193,34.411615 -15.527193,34.411615"
       id="path5" />
    <path
       style="fill:none;stroke:#2079a1;stroke-width:6.3;stroke-linecap:round;stroke-dasharray:none;stroke-opacity:1"
       d="M 29.303521,49.357186 C 25.012569,31.182293 4.4891922,38.302976 5.4192877,53.812506 6.1484504,65.971442 12.212564,73.103075 16.61148,76.892196 c 5.015266,4.320031 12.610581,9.67198 25.059264,11.131097"
       id="path3" />
    <path
       style="fill:none;stroke:#2079a1;stroke-width:6.3;stroke-linecap:round;stroke-dasharray:none;stroke-opacity:1"
       d="m 104.45672,48.853601 c 4.29096,-18.174893 24.81433,-11.05421 23.88424,4.45532 -0.72917,12.158936 -6.79328,19.290569 -11.1922,23.07969 -5.01526,4.320031 -12.61058,9.67198 -25.059259,11.131097"
       id="path2" />
  </g>
</svg>
